<svg width="700" height="500" viewBox="0 0 700 500" fill="none" xmlns="http://www.w3.org/2000/svg">
<rect width="700" height="500" fill="#1E1E1E"/>
<g clip-path="url(#clip0_0_1)">
<rect width="700" height="500" fill="#142241"/>
<g filter="url(#filter0_f_0_1)">
<path d="M10 138C7.26667 138 4.68333 137.475 2.25 136.425C-0.183333 135.375 -2.30833 133.942 -4.125 132.125C-5.94167 130.308 -7.375 128.183 -8.425 125.75C-9.475 123.317 -10 120.733 -10 118C-10 115.233 -9.475 112.633 -8.425 110.2C-7.375 107.767 -5.94167 105.65 -4.125 103.85C-2.30833 102.05 -0.183333 100.625 2.25 99.575C4.68333 98.525 7.26667 98 10 98C12.7667 98 15.3667 98.525 17.8 99.575C20.2333 100.625 22.35 102.05 24.15 103.85C25.95 105.65 27.375 107.767 28.425 110.2C29.475 112.633 30 115.233 30 118C30 120.733 29.475 123.317 28.425 125.75C27.375 128.183 25.95 130.308 24.15 132.125C22.35 133.942 20.2333 135.375 17.8 136.425C15.3667 137.475 12.7667 138 10 138ZM10 135C14.7333 135 18.75 133.342 22.05 130.025C25.35 126.708 27 122.7 27 118C27 113.267 25.35 109.25 22.05 105.95C18.75 102.65 14.7333 101 10 101C5.3 101 1.29167 102.65 -2.025 105.95C-5.34167 109.25 -7 113.267 -7 118C-7 122.7 -5.34167 126.708 -2.025 130.025C1.29167 133.342 5.3 135 10 135Z" fill="#D4AF37"/>
</g>
<g filter="url(#filter1_f_0_1)">
<path d="M14 456C11.2667 456 8.68333 455.475 6.25 454.425C3.81667 453.375 1.69167 451.942 -0.125 450.125C-1.94167 448.308 -3.375 446.183 -4.425 443.75C-5.475 441.317 -6 438.733 -6 436C-6 433.233 -5.475 430.633 -4.425 428.2C-3.375 425.767 -1.94167 423.65 -0.125 421.85C1.69167 420.05 3.81667 418.625 6.25 417.575C8.68333 416.525 11.2667 416 14 416C16.7667 416 19.3667 416.525 21.8 417.575C24.2333 418.625 26.35 420.05 28.15 421.85C29.95 423.65 31.375 425.767 32.425 428.2C33.475 430.633 34 433.233 34 436C34 438.733 33.475 441.317 32.425 443.75C31.375 446.183 29.95 448.308 28.15 450.125C26.35 451.942 24.2333 453.375 21.8 454.425C19.3667 455.475 16.7667 456 14 456ZM14 453C18.7333 453 22.75 451.342 26.05 448.025C29.35 444.708 31 440.7 31 436C31 431.267 29.35 427.25 26.05 423.95C22.75 420.65 18.7333 419 14 419C9.3 419 5.29167 420.65 1.975 423.95C-1.34167 427.25 -3 431.267 -3 436C-3 440.7 -1.34167 444.708 1.975 448.025C5.29167 451.342 9.3 453 14 453Z" fill="#D4AF37"/>
</g>
<g filter="url(#filter2_f_0_1)">
<path d="M130 103C127.267 103 124.683 102.475 122.25 101.425C119.817 100.375 117.692 98.9417 115.875 97.125C114.058 95.3083 112.625 93.1833 111.575 90.75C110.525 88.3167 110 85.7333 110 83C110 80.2333 110.525 77.6333 111.575 75.2C112.625 72.7667 114.058 70.65 115.875 68.85C117.692 67.05 119.817 65.625 122.25 64.575C124.683 63.525 127.267 63 130 63C132.767 63 135.367 63.525 137.8 64.575C140.233 65.625 142.35 67.05 144.15 68.85C145.95 70.65 147.375 72.7667 148.425 75.2C149.475 77.6333 150 80.2333 150 83C150 85.7333 149.475 88.3167 148.425 90.75C147.375 93.1833 145.95 95.3083 144.15 97.125C142.35 98.9417 140.233 100.375 137.8 101.425C135.367 102.475 132.767 103 130 103ZM130 100C134.733 100 138.75 98.3417 142.05 95.025C145.35 91.7083 147 87.7 147 83C147 78.2667 145.35 74.25 142.05 70.95C138.75 67.65 134.733 66 130 66C125.3 66 121.292 67.65 117.975 70.95C114.658 74.25 113 78.2667 113 83C113 87.7 114.658 91.7083 117.975 95.025C121.292 98.3417 125.3 100 130 100Z" fill="#D4AF37"/>
</g>
<g filter="url(#filter3_f_0_1)">
<path d="M86 311C83.2667 311 80.6833 310.475 78.25 309.425C75.8167 308.375 73.6917 306.942 71.875 305.125C70.0583 303.308 68.625 301.183 67.575 298.75C66.525 296.317 66 293.733 66 291C66 288.233 66.525 285.633 67.575 283.2C68.625 280.767 70.0583 278.65 71.875 276.85C73.6917 275.05 75.8167 273.625 78.25 272.575C80.6833 271.525 83.2667 271 86 271C88.7667 271 91.3667 271.525 93.8 272.575C96.2333 273.625 98.35 275.05 100.15 276.85C101.95 278.65 103.375 280.767 104.425 283.2C105.475 285.633 106 288.233 106 291C106 293.733 105.475 296.317 104.425 298.75C103.375 301.183 101.95 303.308 100.15 305.125C98.35 306.942 96.2333 308.375 93.8 309.425C91.3667 310.475 88.7667 311 86 311ZM86 308C90.7333 308 94.75 306.342 98.05 303.025C101.35 299.708 103 295.7 103 291C103 286.267 101.35 282.25 98.05 278.95C94.75 275.65 90.7333 274 86 274C81.3 274 77.2917 275.65 73.975 278.95C70.6583 282.25 69 286.267 69 291C69 295.7 70.6583 299.708 73.975 303.025C77.2917 306.342 81.3 308 86 308Z" fill="#D4AF37"/>
</g>
<g filter="url(#filter4_f_0_1)">
<path d="M272 377C269.267 377 266.683 376.475 264.25 375.425C261.817 374.375 259.692 372.942 257.875 371.125C256.058 369.308 254.625 367.183 253.575 364.75C252.525 362.317 252 359.733 252 357C252 354.233 252.525 351.633 253.575 349.2C254.625 346.767 256.058 344.65 257.875 342.85C259.692 341.05 261.817 339.625 264.25 338.575C266.683 337.525 269.267 337 272 337C274.767 337 277.367 337.525 279.8 338.575C282.233 339.625 284.35 341.05 286.15 342.85C287.95 344.65 289.375 346.767 290.425 349.2C291.475 351.633 292 354.233 292 357C292 359.733 291.475 362.317 290.425 364.75C289.375 367.183 287.95 369.308 286.15 371.125C284.35 372.942 282.233 374.375 279.8 375.425C277.367 376.475 274.767 377 272 377ZM272 374C276.733 374 280.75 372.342 284.05 369.025C287.35 365.708 289 361.7 289 357C289 352.267 287.35 348.25 284.05 344.95C280.75 341.65 276.733 340 272 340C267.3 340 263.292 341.65 259.975 344.95C256.658 348.25 255 352.267 255 357C255 361.7 256.658 365.708 259.975 369.025C263.292 372.342 267.3 374 272 374Z" fill="#D4AF37"/>
</g>
<g clip-path="url(#clip1_0_1)" filter="url(#filter5_f_0_1)">
<path d="M155.021 32.3138C154.431 32.8545 153.712 33.1066 152.865 33.0699C152.017 33.0332 151.323 32.7201 150.782 32.1305L130.505 10.0205C129.964 9.43094 129.712 8.71227 129.749 7.86453C129.786 7.0168 130.099 6.32257 130.688 5.78186L152.798 -14.495C153.388 -15.0357 154.107 -15.2877 154.954 -15.251C155.802 -15.2144 156.496 -14.9012 157.037 -14.3116L177.314 7.79833C177.855 8.38793 178.107 9.10659 178.07 9.95433C178.033 10.8021 177.72 11.4963 177.131 12.037L155.021 32.3138ZM152.993 30.1028L175.103 9.82601L154.826 -12.284L132.716 7.99286L152.993 30.1028Z" fill="#D4AF37"/>
</g>
<g clip-path="url(#clip2_0_1)" filter="url(#filter6_f_0_1)">
<path d="M43.814 177.283C43.1385 176.854 42.7083 176.226 42.5232 175.398C42.3382 174.57 42.46 173.818 42.8887 173.143L58.9652 147.814C59.3939 147.138 60.0223 146.708 60.8504 146.523C61.6785 146.338 62.4303 146.46 63.1058 146.889L88.4345 162.965C89.11 163.394 89.5402 164.022 89.7252 164.85C89.9103 165.679 89.7885 166.43 89.3597 167.106L73.2833 192.434C72.8545 193.11 72.2261 193.54 71.398 193.725C70.5699 193.91 69.8182 193.788 69.1427 193.36L43.814 177.283ZM45.4216 174.75L70.7504 190.827L86.8269 165.498L61.4981 149.422L45.4216 174.75Z" fill="#D4AF37"/>
</g>
<g filter="url(#filter7_f_0_1)">
<path d="M178.601 170.928C177.808 171.032 177.075 170.826 176.402 170.309C175.729 169.793 175.34 169.138 175.235 168.345L171.321 138.601C171.216 137.808 171.422 137.075 171.939 136.402C172.456 135.729 173.11 135.34 173.904 135.235L203.647 131.321C204.44 131.216 205.173 131.422 205.847 131.939C206.52 132.456 206.909 133.111 207.013 133.904L210.928 163.647C211.032 164.44 210.826 165.173 210.309 165.847C209.793 166.52 209.138 166.909 208.345 167.013L178.601 170.928ZM178.21 167.953L207.953 164.039L204.039 134.295L174.295 138.21L178.21 167.953Z" fill="#D4AF37"/>
</g>
<g clip-path="url(#clip3_0_1)" filter="url(#filter8_f_0_1)">
<path d="M-16.1844 344.711C-16.8437 344.257 -17.2507 343.614 -17.4053 342.779C-17.5599 341.945 -17.4106 341.198 -16.9575 340.539L0.0351684 315.816C0.488306 315.156 1.13204 314.749 1.96636 314.595C2.80068 314.44 3.54749 314.589 4.20678 315.042L28.9302 332.035C29.5895 332.488 29.9965 333.132 30.1511 333.966C30.3057 334.801 30.1564 335.547 29.7033 336.207L12.7106 360.93C12.2575 361.589 11.6138 361.996 10.7794 362.151C9.94512 362.306 9.19831 362.156 8.53902 361.703L-16.1844 344.711ZM-14.4852 342.238L10.2383 359.231L27.231 334.507L2.50751 317.515L-14.4852 342.238Z" fill="#D4AF37"/>
</g>
<g clip-path="url(#clip4_0_1)" filter="url(#filter9_f_0_1)">
<path d="M128.011 395.255C127.4 395.772 126.672 395.996 125.827 395.925C124.981 395.855 124.3 395.515 123.783 394.904L104.395 372.011C103.878 371.4 103.655 370.672 103.725 369.827C103.795 368.981 104.135 368.3 104.746 367.783L127.639 348.395C128.25 347.878 128.978 347.655 129.823 347.725C130.669 347.795 131.35 348.135 131.867 348.746L151.255 371.639C151.772 372.25 151.996 372.978 151.925 373.823C151.855 374.669 151.515 375.35 150.905 375.867L128.011 395.255ZM126.072 392.966L148.966 373.578L129.578 350.684L106.684 370.072L126.072 392.966Z" fill="#D4AF37"/>
</g>
<g clip-path="url(#clip5_0_1)" filter="url(#filter10_f_0_1)">
<path d="M33.231 33.0546L69.2394 21.6792L63.6933 58.9786L33.231 33.0546ZM39.2497 34.2373L61.5633 53.2266L65.5128 26.0582L39.2497 34.2373Z" fill="#D4AF37"/>
</g>
<g filter="url(#filter11_f_0_1)">
<path d="M208.607 82.8218L225.676 49.1369L248.443 79.1979L208.607 82.8218ZM213.664 79.3494L242.843 76.6949L226.197 54.8633L213.664 79.3494Z" fill="#D4AF37"/>
</g>
<g clip-path="url(#clip6_0_1)" filter="url(#filter12_f_0_1)">
<path d="M124.751 224.565L159.131 208.944L158.108 246.64L124.751 224.565ZM130.868 225.015L155.302 241.185L155.958 213.739L130.868 225.015Z" fill="#D4AF37"/>
</g>
<g filter="url(#filter13_f_0_1)">
<path d="M218.607 296.822L235.676 263.137L258.443 293.198L218.607 296.822ZM223.664 293.349L252.843 290.695L236.197 268.863L223.664 293.349Z" fill="#D4AF37"/>
</g>
<g clip-path="url(#clip7_0_1)" filter="url(#filter14_f_0_1)">
<path d="M16.6146 259.839L-4.53575 228.556L32.8 223.26L16.6146 259.839ZM16.036 253.733L27.8918 226.939L0.722503 230.882L16.036 253.733Z" fill="#D4AF37"/>
</g>
<g clip-path="url(#clip8_0_1)" filter="url(#filter15_f_0_1)">
<path d="M90.7507 491.565L125.131 475.944L124.108 513.64L90.7507 491.565ZM96.8679 492.015L121.302 508.185L121.958 480.739L96.8679 492.015Z" fill="#D4AF37"/>
</g>
<g clip-path="url(#clip9_0_1)" filter="url(#filter16_f_0_1)">
<path d="M666.399 40.6068C669.064 39.9989 671.7 39.9363 674.305 40.4189C676.911 40.9014 679.302 41.8263 681.477 43.1935C683.652 44.5607 685.522 46.3137 687.087 48.4526C688.652 50.5915 689.738 52.9934 690.346 55.6583C690.961 58.3557 691.028 61.0073 690.545 63.6132C690.063 66.2191 689.136 68.6016 687.765 70.7605C686.394 72.9194 684.639 74.7813 682.5 76.3461C680.361 77.911 677.959 78.9973 675.295 79.6051C672.597 80.2204 669.946 80.2867 667.34 79.8042C664.734 79.3216 662.353 78.403 660.198 77.0483C658.043 75.6937 656.183 73.9469 654.618 71.808C653.053 69.6691 651.963 67.251 651.348 64.5536C650.74 61.8887 650.677 59.2533 651.16 56.6474C651.642 54.0415 652.559 51.6528 653.91 49.4814C655.261 47.3099 657.006 45.4417 659.145 43.8769C661.284 42.3121 663.702 41.222 666.399 40.6068ZM667.066 43.5316C662.452 44.5843 658.904 47.0943 656.425 51.0618C653.945 55.0292 653.227 59.3041 654.273 63.8865C655.325 68.5013 657.827 72.0504 661.778 74.5339C665.73 77.0174 670.013 77.7329 674.627 76.6803C679.21 75.6351 682.751 73.135 685.251 69.1801C687.75 65.2251 688.474 60.9403 687.421 56.3255C686.376 51.7431 683.868 48.204 679.897 45.7079C675.925 43.2119 671.649 42.4864 667.066 43.5316Z" fill="#D4AF37"/>
</g>
<g clip-path="url(#clip10_0_1)" filter="url(#filter17_f_0_1)">
<path d="M631.805 410.564C634.47 409.956 637.105 409.893 639.711 410.376C642.317 410.859 644.708 411.783 646.883 413.151C649.058 414.518 650.928 416.271 652.493 418.41C654.058 420.549 655.144 422.95 655.752 425.615C656.367 428.313 656.433 430.964 655.951 433.57C655.468 436.176 654.541 438.559 653.171 440.718C651.8 442.876 650.045 444.738 647.906 446.303C645.767 447.868 643.365 448.954 640.7 449.562C638.003 450.177 635.351 450.244 632.745 449.761C630.139 449.279 627.759 448.36 625.604 447.005C623.448 445.651 621.588 443.904 620.024 441.765C618.459 439.626 617.369 437.208 616.753 434.511C616.146 431.846 616.083 429.21 616.565 426.604C617.048 423.999 617.965 421.61 619.316 419.438C620.667 417.267 622.412 415.399 624.55 413.834C626.689 412.269 629.108 411.179 631.805 410.564ZM632.472 413.489C627.857 414.541 624.31 417.051 621.83 421.019C619.35 424.986 618.633 429.261 619.678 433.844C620.731 438.458 623.233 442.007 627.184 444.491C631.135 446.974 635.418 447.69 640.033 446.637C644.615 445.592 648.156 443.092 650.656 439.137C653.156 435.182 653.879 430.897 652.827 426.283C651.782 421.7 649.273 418.161 645.302 415.665C641.331 413.169 637.054 412.444 632.472 413.489Z" fill="#D4AF37"/>
</g>
<g clip-path="url(#clip11_0_1)" filter="url(#filter18_f_0_1)">
<path d="M628.448 197.987C631.113 197.38 633.748 197.317 636.354 197.8C638.96 198.282 641.35 199.207 643.525 200.574C645.701 201.941 647.571 203.694 649.135 205.833C650.7 207.972 651.787 210.374 652.394 213.039C653.01 215.736 653.076 218.388 652.593 220.994C652.111 223.6 651.184 225.982 649.813 228.141C648.442 230.3 646.687 232.162 644.549 233.727C642.41 235.292 640.008 236.378 637.343 236.986C634.646 237.601 631.994 237.667 629.388 237.185C626.782 236.702 624.402 235.784 622.246 234.429C620.091 233.074 618.231 231.328 616.666 229.189C615.101 227.05 614.011 224.632 613.396 221.934C612.788 219.269 612.726 216.634 613.208 214.028C613.691 211.422 614.608 209.033 615.958 206.862C617.309 204.691 619.054 202.822 621.193 201.258C623.332 199.693 625.75 198.603 628.448 197.987ZM629.115 200.912C624.5 201.965 620.953 204.475 618.473 208.442C615.993 212.41 615.276 216.685 616.321 221.267C617.374 225.882 619.875 229.431 623.827 231.915C627.778 234.398 632.061 235.114 636.676 234.061C641.258 233.016 644.799 230.516 647.299 226.561C649.799 222.606 650.522 218.321 649.47 213.706C648.424 209.124 645.916 205.585 641.945 203.089C637.974 200.593 633.697 199.867 629.115 200.912Z" fill="#D4AF37"/>
</g>
<g clip-path="url(#clip12_0_1)" filter="url(#filter19_f_0_1)">
<path d="M623.13 485.044C623.585 484.386 624.229 483.98 625.064 483.828C625.899 483.675 626.645 483.826 627.304 484.28L651.989 501.327C652.648 501.782 653.053 502.427 653.206 503.261C653.359 504.096 653.208 504.842 652.753 505.501L635.706 530.187C635.252 530.845 634.607 531.25 633.772 531.403C632.938 531.556 632.191 531.405 631.533 530.951L606.847 513.903C606.189 513.449 605.783 512.804 605.63 511.97C605.478 511.135 605.629 510.388 606.083 509.73L623.13 485.044ZM625.599 486.749L608.552 511.435L633.238 528.482L650.285 503.796L625.599 486.749Z" fill="#D4AF37"/>
</g>
<g clip-path="url(#clip13_0_1)" filter="url(#filter20_f_0_1)">
<path d="M699.314 318.974C700.067 319.242 700.627 319.759 700.991 320.525C701.356 321.292 701.404 322.052 701.136 322.806L691.095 351.075C690.827 351.829 690.31 352.388 689.544 352.753C688.778 353.117 688.018 353.166 687.264 352.898L658.994 342.857C658.24 342.589 657.681 342.072 657.317 341.306C656.952 340.54 656.904 339.78 657.172 339.026L667.213 310.756C667.481 310.002 667.998 309.443 668.764 309.078C669.53 308.714 670.29 308.665 671.044 308.933L699.314 318.974ZM698.309 321.801L670.04 311.76L659.998 340.03L688.268 350.071L698.309 321.801Z" fill="#D4AF37"/>
</g>
<g clip-path="url(#clip14_0_1)" filter="url(#filter21_f_0_1)">
<path d="M569.315 355.145C570.065 354.867 570.825 354.905 571.597 355.259C572.368 355.613 572.892 356.165 573.171 356.915L583.602 385.043C583.88 385.793 583.842 386.554 583.488 387.325C583.134 388.096 582.582 388.621 581.832 388.899L553.704 399.33C552.954 399.608 552.193 399.57 551.422 399.216C550.651 398.862 550.126 398.31 549.848 397.56L539.417 369.432C539.139 368.682 539.177 367.921 539.531 367.15C539.884 366.379 540.436 365.854 541.187 365.576L569.315 355.145ZM570.358 357.958L542.23 368.389L552.661 396.517L580.789 386.086L570.358 357.958Z" fill="#D4AF37"/>
</g>
<g clip-path="url(#clip15_0_1)" filter="url(#filter22_f_0_1)">
<path d="M720.577 142.397C721.32 142.692 721.86 143.229 722.196 144.008C722.533 144.787 722.553 145.549 722.258 146.292L711.189 174.175C710.894 174.919 710.357 175.459 709.578 175.795C708.799 176.131 708.037 176.152 707.294 175.857L679.41 164.788C678.667 164.493 678.127 163.955 677.791 163.176C677.454 162.397 677.434 161.636 677.729 160.892L688.798 133.009C689.093 132.266 689.63 131.726 690.409 131.389C691.189 131.053 691.95 131.033 692.693 131.328L720.577 142.397ZM719.47 145.185L691.586 134.116L680.517 161.999L708.401 173.069L719.47 145.185Z" fill="#D4AF37"/>
</g>
<g clip-path="url(#clip16_0_1)" filter="url(#filter23_f_0_1)">
<path d="M568.752 125.185C569.232 124.545 569.892 124.165 570.732 124.045C571.572 123.926 572.312 124.106 572.952 124.586L596.945 142.595C597.585 143.075 597.965 143.735 598.085 144.575C598.204 145.415 598.024 146.155 597.544 146.795L579.535 170.789C579.055 171.428 578.395 171.808 577.555 171.928C576.715 172.048 575.975 171.867 575.335 171.387L551.341 153.378C550.702 152.898 550.322 152.238 550.202 151.398C550.082 150.558 550.263 149.818 550.743 149.178L568.752 125.185ZM571.151 126.986L553.142 150.979L577.136 168.988L595.145 144.994L571.151 126.986Z" fill="#D4AF37"/>
</g>
<g clip-path="url(#clip17_0_1)">
<path d="M741.705 457.238L709.128 476.336L706.241 438.737L741.705 457.238ZM735.574 457.423L709.597 443.872L711.788 471.238L735.574 457.423Z" fill="#D4AF37"/>
</g>
<g filter="url(#filter24_f_0_1)">
<path d="M559.653 447.718L550.503 484.355L521.621 460.109L559.653 447.718ZM555.496 452.227L527.637 461.304L548.722 478.888L555.496 452.227Z" fill="#D4AF37"/>
</g>
<g clip-path="url(#clip18_0_1)" filter="url(#filter25_f_0_1)">
<path d="M609.889 290.876L579.843 313.751L572.458 276.772L609.889 290.876ZM603.825 291.797L576.407 281.466L581.871 308.37L603.825 291.797Z" fill="#D4AF37"/>
</g>
<g filter="url(#filter26_f_0_1)">
<path d="M502.314 241.3L493.164 277.937L464.282 253.692L502.314 241.3ZM498.156 245.81L470.298 254.887L491.382 272.47L498.156 245.81Z" fill="#D4AF37"/>
</g>
<g clip-path="url(#clip19_0_1)">
<path d="M707.473 232.437L735.05 258.234L699.827 271.699L707.473 232.437ZM709.395 238.262L703.795 267.021L729.406 257.135L709.395 238.262Z" fill="#D4AF37"/>
</g>
<g clip-path="url(#clip20_0_1)" filter="url(#filter27_f_0_1)">
<path d="M583.662 23.0007L553.616 45.8757L546.231 8.89658L583.662 23.0007ZM577.597 23.9216L550.179 13.5903L555.643 40.4951L577.597 23.9216Z" fill="#D4AF37"/>
</g>
<g clip-path="url(#clip21_0_1)" filter="url(#filter28_f_0_1)">
<path d="M436.805 389.564C439.47 388.956 442.105 388.893 444.711 389.376C447.317 389.859 449.708 390.783 451.883 392.151C454.058 393.518 455.928 395.271 457.493 397.41C459.058 399.549 460.144 401.95 460.752 404.615C461.367 407.313 461.433 409.964 460.951 412.57C460.468 415.176 459.541 417.559 458.171 419.718C456.8 421.876 455.045 423.738 452.906 425.303C450.767 426.868 448.365 427.954 445.7 428.562C443.003 429.177 440.351 429.244 437.745 428.761C435.139 428.279 432.759 427.36 430.604 426.005C428.448 424.651 426.588 422.904 425.024 420.765C423.459 418.626 422.369 416.208 421.753 413.511C421.146 410.846 421.083 408.21 421.565 405.604C422.048 402.999 422.965 400.61 424.316 398.438C425.667 396.267 427.412 394.399 429.55 392.834C431.689 391.269 434.108 390.179 436.805 389.564ZM437.472 392.489C432.857 393.541 429.31 396.051 426.83 400.019C424.35 403.986 423.633 408.261 424.678 412.844C425.731 417.458 428.233 421.007 432.184 423.491C436.135 425.974 440.418 426.69 445.033 425.637C449.615 424.592 453.156 422.092 455.656 418.137C458.156 414.182 458.879 409.897 457.827 405.283C456.782 400.7 454.273 397.161 450.302 394.665C446.331 392.169 442.054 391.444 437.472 392.489Z" fill="#D4AF37"/>
</g>
<g clip-path="url(#clip22_0_1)" filter="url(#filter29_f_0_1)">
<path d="M433.448 176.987C436.113 176.38 438.748 176.317 441.354 176.8C443.96 177.282 446.35 178.207 448.525 179.574C450.701 180.941 452.571 182.694 454.135 184.833C455.7 186.972 456.787 189.374 457.394 192.039C458.01 194.736 458.076 197.388 457.593 199.994C457.111 202.6 456.184 204.982 454.813 207.141C453.442 209.3 451.687 211.162 449.549 212.727C447.41 214.292 445.008 215.378 442.343 215.986C439.646 216.601 436.994 216.667 434.388 216.185C431.782 215.702 429.402 214.784 427.246 213.429C425.091 212.074 423.231 210.328 421.666 208.189C420.101 206.05 419.011 203.632 418.396 200.934C417.788 198.269 417.726 195.634 418.208 193.028C418.691 190.422 419.608 188.033 420.958 185.862C422.309 183.691 424.054 181.822 426.193 180.258C428.332 178.693 430.75 177.603 433.448 176.987ZM434.115 179.912C429.5 180.965 425.953 183.475 423.473 187.442C420.993 191.41 420.276 195.685 421.321 200.267C422.374 204.882 424.875 208.431 428.827 210.915C432.778 213.398 437.061 214.114 441.676 213.061C446.258 212.016 449.799 209.516 452.299 205.561C454.799 201.606 455.522 197.321 454.47 192.706C453.424 188.124 450.916 184.585 446.945 182.089C442.974 179.593 438.697 178.867 434.115 179.912Z" fill="#D4AF37"/>
</g>
<g clip-path="url(#clip23_0_1)" filter="url(#filter30_f_0_1)">
<path d="M289.289 150.237C291.953 149.629 294.589 149.567 297.195 150.049C299.801 150.532 302.191 151.457 304.366 152.824C306.542 154.191 308.412 155.944 309.976 158.083C311.541 160.222 312.628 162.624 313.235 165.289C313.851 167.986 313.917 170.638 313.434 173.243C312.952 175.849 312.025 178.232 310.654 180.391C309.283 182.55 307.528 184.412 305.39 185.976C303.251 187.541 300.849 188.628 298.184 189.235C295.486 189.851 292.835 189.917 290.229 189.434C287.623 188.952 285.242 188.033 283.087 186.679C280.932 185.324 279.072 183.577 277.507 181.438C275.942 179.299 274.852 176.881 274.237 174.184C273.629 171.519 273.567 168.884 274.049 166.278C274.532 163.672 275.448 161.283 276.799 159.112C278.15 156.94 279.895 155.072 282.034 153.507C284.173 151.942 286.591 150.852 289.289 150.237ZM289.956 153.162C285.341 154.215 281.794 156.725 279.314 160.692C276.834 164.659 276.117 168.934 277.162 173.517C278.215 178.132 280.716 181.681 284.668 184.164C288.619 186.648 292.902 187.363 297.517 186.311C302.099 185.265 305.64 182.765 308.14 178.81C310.64 174.855 311.363 170.571 310.311 165.956C309.265 161.373 306.757 157.834 302.786 155.338C298.815 152.842 294.538 152.117 289.956 153.162Z" fill="#D4AF37"/>
</g>
<g clip-path="url(#clip24_0_1)" filter="url(#filter31_f_0_1)">
<path d="M478.289 61.237C480.953 60.6292 483.589 60.5665 486.195 61.0491C488.801 61.5317 491.191 62.4566 493.366 63.8238C495.542 65.1909 497.412 66.944 498.976 69.0829C500.541 71.2218 501.628 73.6237 502.235 76.2886C502.851 78.9859 502.917 81.6376 502.434 84.2435C501.952 86.8494 501.025 89.2318 499.654 91.3907C498.283 93.5497 496.528 95.4115 494.39 96.9764C492.251 98.5412 489.849 99.6276 487.184 100.235C484.486 100.851 481.835 100.917 479.229 100.434C476.623 99.9518 474.242 99.0332 472.087 97.6786C469.932 96.324 468.072 94.5772 466.507 92.4383C464.942 90.2994 463.852 87.8812 463.237 85.1838C462.629 82.519 462.567 79.8836 463.049 77.2777C463.532 74.6718 464.448 72.2831 465.799 70.1116C467.15 67.9401 468.895 66.072 471.034 64.5072C473.173 62.9423 475.591 61.8523 478.289 61.237ZM478.956 64.1619C474.341 65.2145 470.794 67.7245 468.314 71.692C465.834 75.6595 465.117 79.9344 466.162 84.5167C467.215 89.1315 469.716 92.6807 473.668 95.1642C477.619 97.6477 481.902 98.3631 486.517 97.3105C491.099 96.2653 494.64 93.7653 497.14 89.8103C499.64 85.8554 500.363 81.5705 499.311 76.9557C498.265 72.3734 495.757 68.8342 491.786 66.3382C487.815 63.8421 483.538 63.1167 478.956 64.1619Z" fill="#D4AF37"/>
</g>
<g clip-path="url(#clip25_0_1)" filter="url(#filter32_f_0_1)">
<path d="M307.289 55.237C309.953 54.6292 312.589 54.5665 315.195 55.0491C317.801 55.5317 320.191 56.4566 322.366 57.8238C324.542 59.1909 326.412 60.944 327.976 63.0829C329.541 65.2218 330.628 67.6237 331.235 70.2886C331.851 72.9859 331.917 75.6376 331.434 78.2435C330.952 80.8494 330.025 83.2318 328.654 85.3907C327.283 87.5497 325.528 89.4115 323.39 90.9764C321.251 92.5412 318.849 93.6276 316.184 94.2354C313.486 94.8507 310.835 94.917 308.229 94.4344C305.623 93.9518 303.242 93.0332 301.087 91.6786C298.932 90.324 297.072 88.5772 295.507 86.4383C293.942 84.2994 292.852 81.8812 292.237 79.1838C291.629 76.519 291.567 73.8836 292.049 71.2777C292.532 68.6718 293.448 66.2831 294.799 64.1116C296.15 61.9401 297.895 60.072 300.034 58.5072C302.173 56.9423 304.591 55.8523 307.289 55.237ZM307.956 58.1619C303.341 59.2145 299.794 61.7245 297.314 65.692C294.834 69.6595 294.117 73.9344 295.162 78.5167C296.215 83.1315 298.716 86.6807 302.668 89.1642C306.619 91.6477 310.902 92.3631 315.517 91.3105C320.099 90.2653 323.64 87.7653 326.14 83.8103C328.64 79.8554 329.363 75.5705 328.311 70.9557C327.265 66.3734 324.757 62.8342 320.786 60.3382C316.815 57.8421 312.538 57.1167 307.956 58.1619Z" fill="#D4AF37"/>
</g>
<g clip-path="url(#clip26_0_1)" filter="url(#filter33_f_0_1)">
<path d="M428.13 464.044C428.585 463.386 429.229 462.98 430.064 462.828C430.899 462.675 431.645 462.826 432.304 463.28L456.989 480.327C457.648 480.782 458.053 481.427 458.206 482.261C458.359 483.096 458.208 483.842 457.753 484.501L440.706 509.187C440.252 509.845 439.607 510.25 438.772 510.403C437.938 510.556 437.191 510.405 436.533 509.951L411.847 492.903C411.189 492.449 410.783 491.804 410.63 490.97C410.478 490.135 410.629 489.388 411.083 488.73L428.13 464.044ZM430.599 465.749L413.552 490.435L438.238 507.482L455.285 482.796L430.599 465.749Z" fill="#D4AF37"/>
</g>
<g clip-path="url(#clip27_0_1)" filter="url(#filter34_f_0_1)">
<path d="M374.315 334.145C375.065 333.867 375.825 333.905 376.597 334.259C377.368 334.613 377.892 335.165 378.171 335.915L388.602 364.043C388.88 364.793 388.842 365.554 388.488 366.325C388.134 367.096 387.582 367.621 386.832 367.899L358.704 378.33C357.954 378.608 357.193 378.57 356.422 378.216C355.651 377.862 355.126 377.31 354.848 376.56L344.417 348.432C344.139 347.682 344.177 346.921 344.531 346.15C344.884 345.379 345.436 344.854 346.187 344.576L374.315 334.145ZM375.358 336.958L347.23 347.389L357.661 375.517L385.789 365.086L375.358 336.958Z" fill="#D4AF37"/>
</g>
<g clip-path="url(#clip28_0_1)" filter="url(#filter35_f_0_1)">
<path d="M373.752 104.185C374.232 103.545 374.892 103.165 375.732 103.045C376.572 102.926 377.312 103.106 377.952 103.586L401.945 121.595C402.585 122.075 402.965 122.735 403.085 123.575C403.204 124.415 403.024 125.155 402.544 125.795L384.535 149.789C384.055 150.428 383.395 150.808 382.555 150.928C381.715 151.048 380.975 150.867 380.335 150.387L356.341 132.378C355.702 131.898 355.322 131.238 355.202 130.398C355.082 129.558 355.263 128.818 355.743 128.178L373.752 104.185ZM376.151 105.986L358.142 129.979L382.136 147.988L400.145 123.994L376.151 105.986Z" fill="#D4AF37"/>
</g>
<g filter="url(#filter36_f_0_1)">
<path d="M364.653 426.718L355.503 463.355L326.621 439.109L364.653 426.718ZM360.496 431.227L332.637 440.304L353.722 457.888L360.496 431.227Z" fill="#D4AF37"/>
</g>
<g filter="url(#filter37_f_0_1)">
<path d="M228.314 384.846L219.164 421.483L190.282 397.237L228.314 384.846ZM224.156 389.355L196.298 398.432L217.382 416.016L224.156 389.355Z" fill="#D4AF37"/>
</g>
<g clip-path="url(#clip29_0_1)" filter="url(#filter38_f_0_1)">
<path d="M414.889 269.876L384.843 292.751L377.458 255.772L414.889 269.876ZM408.825 270.797L381.407 260.466L386.871 287.37L408.825 270.797Z" fill="#D4AF37"/>
</g>
<g filter="url(#filter39_f_0_1)">
<path d="M307.314 220.3L298.164 256.937L269.282 232.692L307.314 220.3ZM303.156 224.81L275.298 233.887L296.382 251.47L303.156 224.81Z" fill="#D4AF37"/>
</g>
<g clip-path="url(#clip30_0_1)" filter="url(#filter40_f_0_1)">
<path d="M388.662 2.00069L358.616 24.8757L351.231 -12.1034L388.662 2.00069ZM382.597 2.92159L355.179 -7.40967L360.643 19.4951L382.597 2.92159Z" fill="#D4AF37"/>
</g>
<g clip-path="url(#clip31_0_1)" filter="url(#filter41_f_0_1)">
<path d="M211.289 482.237C213.953 481.629 216.589 481.567 219.195 482.049C221.801 482.532 224.191 483.457 226.366 484.824C228.542 486.191 230.412 487.944 231.976 490.083C233.541 492.222 234.628 494.624 235.235 497.289C235.851 499.986 235.917 502.638 235.434 505.243C234.952 507.849 234.025 510.232 232.654 512.391C231.283 514.55 229.528 516.412 227.39 517.976C225.251 519.541 222.849 520.628 220.184 521.235C217.486 521.851 214.835 521.917 212.229 521.434C209.623 520.952 207.242 520.033 205.087 518.679C202.932 517.324 201.072 515.577 199.507 513.438C197.942 511.299 196.852 508.881 196.237 506.184C195.629 503.519 195.567 500.884 196.049 498.278C196.532 495.672 197.448 493.283 198.799 491.112C200.15 488.94 201.895 487.072 204.034 485.507C206.173 483.942 208.591 482.852 211.289 482.237ZM211.956 485.162C207.341 486.214 203.794 488.725 201.314 492.692C198.834 496.659 198.117 500.934 199.162 505.517C200.215 510.131 202.716 513.681 206.668 516.164C210.619 518.648 214.902 519.363 219.517 518.31C224.099 517.265 227.64 514.765 230.14 510.81C232.64 506.855 233.363 502.57 232.311 497.956C231.265 493.373 228.757 489.834 224.786 487.338C220.815 484.842 216.538 484.117 211.956 485.162Z" fill="#D4AF37"/>
</g>
</g>
<defs>
<filter id="filter0_f_0_1" x="-20" y="88" width="60" height="60" filterUnits="userSpaceOnUse" color-interpolation-filters="sRGB">
<feFlood flood-opacity="0" result="BackgroundImageFix"/>
<feBlend mode="normal" in="SourceGraphic" in2="BackgroundImageFix" result="shape"/>
<feGaussianBlur stdDeviation="3" result="effect1_foregroundBlur_0_1"/>
</filter>
<filter id="filter1_f_0_1" x="-16" y="406" width="60" height="60" filterUnits="userSpaceOnUse" color-interpolation-filters="sRGB">
<feFlood flood-opacity="0" result="BackgroundImageFix"/>
<feBlend mode="normal" in="SourceGraphic" in2="BackgroundImageFix" result="shape"/>
<feGaussianBlur stdDeviation="3" result="effect1_foregroundBlur_0_1"/>
</filter>
<filter id="filter2_f_0_1" x="100" y="53" width="60" height="60" filterUnits="userSpaceOnUse" color-interpolation-filters="sRGB">
<feFlood flood-opacity="0" result="BackgroundImageFix"/>
<feBlend mode="normal" in="SourceGraphic" in2="BackgroundImageFix" result="shape"/>
<feGaussianBlur stdDeviation="3" result="effect1_foregroundBlur_0_1"/>
</filter>
<filter id="filter3_f_0_1" x="56" y="261" width="60" height="60" filterUnits="userSpaceOnUse" color-interpolation-filters="sRGB">
<feFlood flood-opacity="0" result="BackgroundImageFix"/>
<feBlend mode="normal" in="SourceGraphic" in2="BackgroundImageFix" result="shape"/>
<feGaussianBlur stdDeviation="3" result="effect1_foregroundBlur_0_1"/>
</filter>
<filter id="filter4_f_0_1" x="242" y="327" width="60" height="60" filterUnits="userSpaceOnUse" color-interpolation-filters="sRGB">
<feFlood flood-opacity="0" result="BackgroundImageFix"/>
<feBlend mode="normal" in="SourceGraphic" in2="BackgroundImageFix" result="shape"/>
<feGaussianBlur stdDeviation="3" result="effect1_foregroundBlur_0_1"/>
</filter>
<filter id="filter5_f_0_1" x="114" y="-31" width="79.8188" height="79.8188" filterUnits="userSpaceOnUse" color-interpolation-filters="sRGB">
<feFlood flood-opacity="0" result="BackgroundImageFix"/>
<feBlend mode="normal" in="SourceGraphic" in2="BackgroundImageFix" result="shape"/>
<feGaussianBlur stdDeviation="3" result="effect1_foregroundBlur_0_1"/>
</filter>
<filter id="filter6_f_0_1" x="27" y="131" width="78.2484" height="78.2484" filterUnits="userSpaceOnUse" color-interpolation-filters="sRGB">
<feFlood flood-opacity="0" result="BackgroundImageFix"/>
<feBlend mode="normal" in="SourceGraphic" in2="BackgroundImageFix" result="shape"/>
<feGaussianBlur stdDeviation="3" result="effect1_foregroundBlur_0_1"/>
</filter>
<filter id="filter7_f_0_1" x="158.198" y="118.198" width="65.8531" height="65.8531" filterUnits="userSpaceOnUse" color-interpolation-filters="sRGB">
<feFlood flood-opacity="0" result="BackgroundImageFix"/>
<feBlend mode="normal" in="SourceGraphic" in2="BackgroundImageFix" result="shape"/>
<feGaussianBlur stdDeviation="3" result="effect1_foregroundBlur_0_1"/>
</filter>
<filter id="filter8_f_0_1" x="-33" y="299" width="78.7458" height="78.7458" filterUnits="userSpaceOnUse" color-interpolation-filters="sRGB">
<feFlood flood-opacity="0" result="BackgroundImageFix"/>
<feBlend mode="normal" in="SourceGraphic" in2="BackgroundImageFix" result="shape"/>
<feGaussianBlur stdDeviation="3" result="effect1_foregroundBlur_0_1"/>
</filter>
<filter id="filter9_f_0_1" x="88" y="332" width="79.6501" height="79.6501" filterUnits="userSpaceOnUse" color-interpolation-filters="sRGB">
<feFlood flood-opacity="0" result="BackgroundImageFix"/>
<feBlend mode="normal" in="SourceGraphic" in2="BackgroundImageFix" result="shape"/>
<feGaussianBlur stdDeviation="3" result="effect1_foregroundBlur_0_1"/>
</filter>
<filter id="filter10_f_0_1" x="19" y="-6" width="79.6635" height="79.6635" filterUnits="userSpaceOnUse" color-interpolation-filters="sRGB">
<feFlood flood-opacity="0" result="BackgroundImageFix"/>
<feBlend mode="normal" in="SourceGraphic" in2="BackgroundImageFix" result="shape"/>
<feGaussianBlur stdDeviation="3" result="effect1_foregroundBlur_0_1"/>
</filter>
<filter id="filter11_f_0_1" x="195" y="33" width="64.1513" height="64.1513" filterUnits="userSpaceOnUse" color-interpolation-filters="sRGB">
<feFlood flood-opacity="0" result="BackgroundImageFix"/>
<feBlend mode="normal" in="SourceGraphic" in2="BackgroundImageFix" result="shape"/>
<feGaussianBlur stdDeviation="3" result="effect1_foregroundBlur_0_1"/>
</filter>
<filter id="filter12_f_0_1" x="111" y="183" width="78.5185" height="78.5184" filterUnits="userSpaceOnUse" color-interpolation-filters="sRGB">
<feFlood flood-opacity="0" result="BackgroundImageFix"/>
<feBlend mode="normal" in="SourceGraphic" in2="BackgroundImageFix" result="shape"/>
<feGaussianBlur stdDeviation="3" result="effect1_foregroundBlur_0_1"/>
</filter>
<filter id="filter13_f_0_1" x="205" y="247" width="64.1513" height="64.1513" filterUnits="userSpaceOnUse" color-interpolation-filters="sRGB">
<feFlood flood-opacity="0" result="BackgroundImageFix"/>
<feBlend mode="normal" in="SourceGraphic" in2="BackgroundImageFix" result="shape"/>
<feGaussianBlur stdDeviation="3" result="effect1_foregroundBlur_0_1"/>
</filter>
<filter id="filter14_f_0_1" x="-27.5831" y="197.417" width="75.3174" height="75.3174" filterUnits="userSpaceOnUse" color-interpolation-filters="sRGB">
<feFlood flood-opacity="0" result="BackgroundImageFix"/>
<feBlend mode="normal" in="SourceGraphic" in2="BackgroundImageFix" result="shape"/>
<feGaussianBlur stdDeviation="3" result="effect1_foregroundBlur_0_1"/>
</filter>
<filter id="filter15_f_0_1" x="77" y="450" width="78.5185" height="78.5184" filterUnits="userSpaceOnUse" color-interpolation-filters="sRGB">
<feFlood flood-opacity="0" result="BackgroundImageFix"/>
<feBlend mode="normal" in="SourceGraphic" in2="BackgroundImageFix" result="shape"/>
<feGaussianBlur stdDeviation="3" result="effect1_foregroundBlur_0_1"/>
</filter>
<filter id="filter16_f_0_1" x="636.111" y="25.3698" width="69.4724" height="69.4724" filterUnits="userSpaceOnUse" color-interpolation-filters="sRGB">
<feFlood flood-opacity="0" result="BackgroundImageFix"/>
<feBlend mode="normal" in="SourceGraphic" in2="BackgroundImageFix" result="shape"/>
<feGaussianBlur stdDeviation="3" result="effect1_foregroundBlur_0_1"/>
</filter>
<filter id="filter17_f_0_1" x="601.516" y="395.327" width="69.4724" height="69.4724" filterUnits="userSpaceOnUse" color-interpolation-filters="sRGB">
<feFlood flood-opacity="0" result="BackgroundImageFix"/>
<feBlend mode="normal" in="SourceGraphic" in2="BackgroundImageFix" result="shape"/>
<feGaussianBlur stdDeviation="3" result="effect1_foregroundBlur_0_1"/>
</filter>
<filter id="filter18_f_0_1" x="598.159" y="182.75" width="69.4724" height="69.4724" filterUnits="userSpaceOnUse" color-interpolation-filters="sRGB">
<feFlood flood-opacity="0" result="BackgroundImageFix"/>
<feBlend mode="normal" in="SourceGraphic" in2="BackgroundImageFix" result="shape"/>
<feGaussianBlur stdDeviation="3" result="effect1_foregroundBlur_0_1"/>
</filter>
<filter id="filter19_f_0_1" x="590.032" y="468.229" width="78.7729" height="78.7729" filterUnits="userSpaceOnUse" color-interpolation-filters="sRGB">
<feFlood flood-opacity="0" result="BackgroundImageFix"/>
<feBlend mode="normal" in="SourceGraphic" in2="BackgroundImageFix" result="shape"/>
<feGaussianBlur stdDeviation="3" result="effect1_foregroundBlur_0_1"/>
</filter>
<filter id="filter20_f_0_1" x="642.505" y="294.267" width="73.2975" height="73.2975" filterUnits="userSpaceOnUse" color-interpolation-filters="sRGB">
<feFlood flood-opacity="0" result="BackgroundImageFix"/>
<feBlend mode="normal" in="SourceGraphic" in2="BackgroundImageFix" result="shape"/>
<feGaussianBlur stdDeviation="3" result="effect1_foregroundBlur_0_1"/>
</filter>
<filter id="filter21_f_0_1" x="524.662" y="340.39" width="73.6948" height="73.6948" filterUnits="userSpaceOnUse" color-interpolation-filters="sRGB">
<feFlood flood-opacity="0" result="BackgroundImageFix"/>
<feBlend mode="normal" in="SourceGraphic" in2="BackgroundImageFix" result="shape"/>
<feGaussianBlur stdDeviation="3" result="effect1_foregroundBlur_0_1"/>
</filter>
<filter id="filter22_f_0_1" x="662.832" y="116.43" width="74.3238" height="74.3238" filterUnits="userSpaceOnUse" color-interpolation-filters="sRGB">
<feFlood flood-opacity="0" result="BackgroundImageFix"/>
<feBlend mode="normal" in="SourceGraphic" in2="BackgroundImageFix" result="shape"/>
<feGaussianBlur stdDeviation="3" result="effect1_foregroundBlur_0_1"/>
</filter>
<filter id="filter23_f_0_1" x="534.542" y="108.385" width="79.2035" height="79.2035" filterUnits="userSpaceOnUse" color-interpolation-filters="sRGB">
<feFlood flood-opacity="0" result="BackgroundImageFix"/>
<feBlend mode="normal" in="SourceGraphic" in2="BackgroundImageFix" result="shape"/>
<feGaussianBlur stdDeviation="3" result="effect1_foregroundBlur_0_1"/>
</filter>
<filter id="filter24_f_0_1" x="509.339" y="432.872" width="72.5088" height="72.5088" filterUnits="userSpaceOnUse" color-interpolation-filters="sRGB">
<feFlood flood-opacity="0" result="BackgroundImageFix"/>
<feBlend mode="normal" in="SourceGraphic" in2="BackgroundImageFix" result="shape"/>
<feGaussianBlur stdDeviation="3" result="effect1_foregroundBlur_0_1"/>
</filter>
<filter id="filter25_f_0_1" x="548.611" y="261.875" width="73.842" height="73.842" filterUnits="userSpaceOnUse" color-interpolation-filters="sRGB">
<feFlood flood-opacity="0" result="BackgroundImageFix"/>
<feBlend mode="normal" in="SourceGraphic" in2="BackgroundImageFix" result="shape"/>
<feGaussianBlur stdDeviation="3" result="effect1_foregroundBlur_0_1"/>
</filter>
<filter id="filter26_f_0_1" x="452" y="226.455" width="72.5088" height="72.5088" filterUnits="userSpaceOnUse" color-interpolation-filters="sRGB">
<feFlood flood-opacity="0" result="BackgroundImageFix"/>
<feBlend mode="normal" in="SourceGraphic" in2="BackgroundImageFix" result="shape"/>
<feGaussianBlur stdDeviation="3" result="effect1_foregroundBlur_0_1"/>
</filter>
<filter id="filter27_f_0_1" x="522.383" y="-6" width="73.842" height="73.842" filterUnits="userSpaceOnUse" color-interpolation-filters="sRGB">
<feFlood flood-opacity="0" result="BackgroundImageFix"/>
<feBlend mode="normal" in="SourceGraphic" in2="BackgroundImageFix" result="shape"/>
<feGaussianBlur stdDeviation="3" result="effect1_foregroundBlur_0_1"/>
</filter>
<filter id="filter28_f_0_1" x="406.516" y="374.327" width="69.4724" height="69.4724" filterUnits="userSpaceOnUse" color-interpolation-filters="sRGB">
<feFlood flood-opacity="0" result="BackgroundImageFix"/>
<feBlend mode="normal" in="SourceGraphic" in2="BackgroundImageFix" result="shape"/>
<feGaussianBlur stdDeviation="3" result="effect1_foregroundBlur_0_1"/>
</filter>
<filter id="filter29_f_0_1" x="403.159" y="161.75" width="69.4724" height="69.4724" filterUnits="userSpaceOnUse" color-interpolation-filters="sRGB">
<feFlood flood-opacity="0" result="BackgroundImageFix"/>
<feBlend mode="normal" in="SourceGraphic" in2="BackgroundImageFix" result="shape"/>
<feGaussianBlur stdDeviation="3" result="effect1_foregroundBlur_0_1"/>
</filter>
<filter id="filter30_f_0_1" x="259" y="135" width="69.4724" height="69.4724" filterUnits="userSpaceOnUse" color-interpolation-filters="sRGB">
<feFlood flood-opacity="0" result="BackgroundImageFix"/>
<feBlend mode="normal" in="SourceGraphic" in2="BackgroundImageFix" result="shape"/>
<feGaussianBlur stdDeviation="3" result="effect1_foregroundBlur_0_1"/>
</filter>
<filter id="filter31_f_0_1" x="448" y="46" width="69.4724" height="69.4724" filterUnits="userSpaceOnUse" color-interpolation-filters="sRGB">
<feFlood flood-opacity="0" result="BackgroundImageFix"/>
<feBlend mode="normal" in="SourceGraphic" in2="BackgroundImageFix" result="shape"/>
<feGaussianBlur stdDeviation="3" result="effect1_foregroundBlur_0_1"/>
</filter>
<filter id="filter32_f_0_1" x="277" y="40" width="69.4724" height="69.4724" filterUnits="userSpaceOnUse" color-interpolation-filters="sRGB">
<feFlood flood-opacity="0" result="BackgroundImageFix"/>
<feBlend mode="normal" in="SourceGraphic" in2="BackgroundImageFix" result="shape"/>
<feGaussianBlur stdDeviation="3" result="effect1_foregroundBlur_0_1"/>
</filter>
<filter id="filter33_f_0_1" x="395.032" y="447.229" width="78.7729" height="78.7729" filterUnits="userSpaceOnUse" color-interpolation-filters="sRGB">
<feFlood flood-opacity="0" result="BackgroundImageFix"/>
<feBlend mode="normal" in="SourceGraphic" in2="BackgroundImageFix" result="shape"/>
<feGaussianBlur stdDeviation="3" result="effect1_foregroundBlur_0_1"/>
</filter>
<filter id="filter34_f_0_1" x="329.662" y="319.39" width="73.6948" height="73.6948" filterUnits="userSpaceOnUse" color-interpolation-filters="sRGB">
<feFlood flood-opacity="0" result="BackgroundImageFix"/>
<feBlend mode="normal" in="SourceGraphic" in2="BackgroundImageFix" result="shape"/>
<feGaussianBlur stdDeviation="3" result="effect1_foregroundBlur_0_1"/>
</filter>
<filter id="filter35_f_0_1" x="339.542" y="87.3849" width="79.2035" height="79.2035" filterUnits="userSpaceOnUse" color-interpolation-filters="sRGB">
<feFlood flood-opacity="0" result="BackgroundImageFix"/>
<feBlend mode="normal" in="SourceGraphic" in2="BackgroundImageFix" result="shape"/>
<feGaussianBlur stdDeviation="3" result="effect1_foregroundBlur_0_1"/>
</filter>
<filter id="filter36_f_0_1" x="314.339" y="411.872" width="72.5088" height="72.5088" filterUnits="userSpaceOnUse" color-interpolation-filters="sRGB">
<feFlood flood-opacity="0" result="BackgroundImageFix"/>
<feBlend mode="normal" in="SourceGraphic" in2="BackgroundImageFix" result="shape"/>
<feGaussianBlur stdDeviation="3" result="effect1_foregroundBlur_0_1"/>
</filter>
<filter id="filter37_f_0_1" x="178" y="370" width="72.5088" height="72.5088" filterUnits="userSpaceOnUse" color-interpolation-filters="sRGB">
<feFlood flood-opacity="0" result="BackgroundImageFix"/>
<feBlend mode="normal" in="SourceGraphic" in2="BackgroundImageFix" result="shape"/>
<feGaussianBlur stdDeviation="3" result="effect1_foregroundBlur_0_1"/>
</filter>
<filter id="filter38_f_0_1" x="353.611" y="240.875" width="73.842" height="73.842" filterUnits="userSpaceOnUse" color-interpolation-filters="sRGB">
<feFlood flood-opacity="0" result="BackgroundImageFix"/>
<feBlend mode="normal" in="SourceGraphic" in2="BackgroundImageFix" result="shape"/>
<feGaussianBlur stdDeviation="3" result="effect1_foregroundBlur_0_1"/>
</filter>
<filter id="filter39_f_0_1" x="257" y="205.455" width="72.5088" height="72.5088" filterUnits="userSpaceOnUse" color-interpolation-filters="sRGB">
<feFlood flood-opacity="0" result="BackgroundImageFix"/>
<feBlend mode="normal" in="SourceGraphic" in2="BackgroundImageFix" result="shape"/>
<feGaussianBlur stdDeviation="3" result="effect1_foregroundBlur_0_1"/>
</filter>
<filter id="filter40_f_0_1" x="327.383" y="-27" width="73.842" height="73.842" filterUnits="userSpaceOnUse" color-interpolation-filters="sRGB">
<feFlood flood-opacity="0" result="BackgroundImageFix"/>
<feBlend mode="normal" in="SourceGraphic" in2="BackgroundImageFix" result="shape"/>
<feGaussianBlur stdDeviation="3" result="effect1_foregroundBlur_0_1"/>
</filter>
<filter id="filter41_f_0_1" x="181" y="467" width="69.4724" height="69.4724" filterUnits="userSpaceOnUse" color-interpolation-filters="sRGB">
<feFlood flood-opacity="0" result="BackgroundImageFix"/>
<feBlend mode="normal" in="SourceGraphic" in2="BackgroundImageFix" result="shape"/>
<feGaussianBlur stdDeviation="3" result="effect1_foregroundBlur_0_1"/>
</filter>
<clipPath id="clip0_0_1">
<rect width="700" height="500" fill="white"/>
</clipPath>
<clipPath id="clip1_0_1">
<rect width="48" height="48" fill="white" transform="translate(120 7.4429) rotate(-42.5236)"/>
</clipPath>
<clipPath id="clip2_0_1">
<rect width="48" height="48" fill="white" transform="translate(58.7224 137) rotate(32.4038)"/>
</clipPath>
<clipPath id="clip3_0_1">
<rect width="48" height="48" fill="white" transform="translate(0.188293 305) rotate(34.5011)"/>
</clipPath>
<clipPath id="clip4_0_1">
<rect width="48" height="48" fill="white" transform="translate(94 369.021) rotate(-40.2602)"/>
</clipPath>
<clipPath id="clip5_0_1">
<rect width="48" height="48" fill="white" transform="translate(56.1088) rotate(40.3984)"/>
</clipPath>
<clipPath id="clip6_0_1">
<rect width="48" height="48" fill="white" transform="translate(143.49 189) rotate(33.4956)"/>
</clipPath>
<clipPath id="clip7_0_1">
<rect width="48" height="48" fill="white" transform="translate(-21.5831 247.312) rotate(-66.1317)"/>
</clipPath>
<clipPath id="clip8_0_1">
<rect width="48" height="48" fill="white" transform="translate(109.49 456) rotate(33.4956)"/>
</clipPath>
<clipPath id="clip9_0_1">
<rect width="48" height="48" fill="white" transform="translate(699.583 78.1678) rotate(167.151)"/>
</clipPath>
<clipPath id="clip10_0_1">
<rect width="48" height="48" fill="white" transform="translate(664.989 448.125) rotate(167.151)"/>
</clipPath>
<clipPath id="clip11_0_1">
<rect width="48" height="48" fill="white" transform="translate(661.631 235.548) rotate(167.151)"/>
</clipPath>
<clipPath id="clip12_0_1">
<rect width="48" height="48" fill="white" transform="translate(662.805 501.504) rotate(124.627)"/>
</clipPath>
<clipPath id="clip13_0_1">
<rect width="48" height="48" fill="white" transform="translate(693.737 361.564) rotate(-160.445)"/>
</clipPath>
<clipPath id="clip14_0_1">
<rect width="48" height="48" fill="white" transform="translate(592.357 391.395) rotate(159.653)"/>
</clipPath>
<clipPath id="clip15_0_1">
<rect width="48" height="48" fill="white" transform="translate(713.445 184.754) rotate(-158.348)"/>
</clipPath>
<clipPath id="clip16_0_1">
<rect width="48" height="48" fill="white" transform="translate(607.745 143.199) rotate(126.891)"/>
</clipPath>
<clipPath id="clip17_0_1">
<rect width="48" height="48" fill="white" transform="translate(726.751 494.553) rotate(-152.451)"/>
</clipPath>
<clipPath id="clip18_0_1">
<rect width="48" height="48" fill="white" transform="translate(599.528 329.717) rotate(-159.353)"/>
</clipPath>
<clipPath id="clip19_0_1">
<rect width="48" height="48" fill="white" transform="translate(747.5 236.156) rotate(101.019)"/>
</clipPath>
<clipPath id="clip20_0_1">
<rect width="48" height="48" fill="white" transform="translate(573.301 61.842) rotate(-159.353)"/>
</clipPath>
<clipPath id="clip21_0_1">
<rect width="48" height="48" fill="white" transform="translate(469.989 427.125) rotate(167.151)"/>
</clipPath>
<clipPath id="clip22_0_1">
<rect width="48" height="48" fill="white" transform="translate(466.631 214.548) rotate(167.151)"/>
</clipPath>
<clipPath id="clip23_0_1">
<rect width="48" height="48" fill="white" transform="translate(322.472 187.798) rotate(167.151)"/>
</clipPath>
<clipPath id="clip24_0_1">
<rect width="48" height="48" fill="white" transform="translate(511.472 98.7981) rotate(167.151)"/>
</clipPath>
<clipPath id="clip25_0_1">
<rect width="48" height="48" fill="white" transform="translate(340.472 92.7981) rotate(167.151)"/>
</clipPath>
<clipPath id="clip26_0_1">
<rect width="48" height="48" fill="white" transform="translate(467.805 480.504) rotate(124.627)"/>
</clipPath>
<clipPath id="clip27_0_1">
<rect width="48" height="48" fill="white" transform="translate(397.357 370.395) rotate(159.653)"/>
</clipPath>
<clipPath id="clip28_0_1">
<rect width="48" height="48" fill="white" transform="translate(412.745 122.199) rotate(126.891)"/>
</clipPath>
<clipPath id="clip29_0_1">
<rect width="48" height="48" fill="white" transform="translate(404.528 308.717) rotate(-159.353)"/>
</clipPath>
<clipPath id="clip30_0_1">
<rect width="48" height="48" fill="white" transform="translate(378.301 40.842) rotate(-159.353)"/>
</clipPath>
<clipPath id="clip31_0_1">
<rect width="48" height="48" fill="white" transform="translate(244.472 519.798) rotate(167.151)"/>
</clipPath>
</defs>
</svg>
